<?xml version="1.0" encoding="UTF-8" standalone="no"?>
<!DOCTYPE svg PUBLIC "-//W3C//DTD SVG 1.1//EN" "http://www.w3.org/Graphics/SVG/1.1/DTD/svg11.dtd">
<svg width="100%" height="100%" viewBox="0 0 512 512" version="1.1" xmlns="http://www.w3.org/2000/svg" xmlns:xlink="http://www.w3.org/1999/xlink" xml:space="preserve" xmlns:serif="http://www.serif.com/" style="fill-rule:evenodd;clip-rule:evenodd;stroke-linecap:round;stroke-linejoin:round;stroke-miterlimit:1.5;">
    <g id="Layer1">
        <path d="M152.807,385.983C142.14,380.402 132.25,373.982 123.29,366.843C120.559,364.629 118.835,361.408 118.506,357.908C118.178,354.408 119.272,350.923 121.544,348.239C128.117,340.412 136.226,330.83 136.226,330.83C117.605,306.521 106.574,276.361 106.574,243.707C106.574,163.259 173.53,97.945 256,97.945C338.47,97.945 405.426,163.259 405.426,243.707C405.426,268.059 399.291,291.024 388.444,311.216C388.444,311.216 396.532,318.94 404.054,326.124C411.495,333.23 411.767,345.021 404.663,352.462C398.976,358.25 392.797,363.749 386.128,368.86L396.707,383.081L344.367,422.014L327.471,399.301C318.421,402.255 309.011,404.665 299.307,406.479L301.652,438.608L238.318,443.231L235.864,409.608C228.024,408.947 220.329,407.903 212.804,406.5L199.903,435.702L142.119,410.175L152.807,385.983ZM229.645,341.923C228.644,344.139 229.292,346.753 231.213,348.245C233.134,349.737 235.827,349.718 237.726,348.2L245.658,341.859C245.658,341.859 254.415,347.112 254.415,347.112C256.399,348.302 258.928,348.057 260.646,346.507C262.364,344.957 262.869,342.467 261.889,340.371L250.697,316.426C249.826,314.563 247.951,313.378 245.895,313.392C243.84,313.405 241.98,314.614 241.134,316.488L229.645,341.923ZM323.005,194.048C346.048,194.048 364.756,224.409 364.756,261.806C364.756,299.202 346.048,329.564 323.005,329.564C299.961,329.564 281.253,299.202 281.253,261.806C281.253,224.409 299.961,194.048 323.005,194.048ZM173.005,204.497C196.048,204.497 214.756,229.934 214.756,261.265C214.756,292.596 196.048,318.033 173.005,318.033C149.961,318.033 131.253,292.596 131.253,261.265C131.253,229.934 149.961,204.497 173.005,204.497Z" style="fill:rgb(235,235,235);fill-opacity:0;stroke:black;stroke-width:3.96px;"/>
    </g>
</svg>
